<?xml version="1.0" encoding="UTF-8"?>
<svg version="1.1" xmlns="http://www.w3.org/2000/svg" width="1536" height="1024">
<path d="M0 0 C506.88 0 1013.76 0 1536 0 C1536 337.92 1536 675.84 1536 1024 C1029.12 1024 522.24 1024 0 1024 C0 686.08 0 348.16 0 0 Z " fill="#FEFEFE" transform="translate(0,0)"/>
<path d="M0 0 C0.33 31.02 0.66 62.04 1 94 C3.64 90.37 6.28 86.74 9 83 C15.19742569 77.43820771 21.30913983 73.2003902 29 70 C29.87269531 69.63132812 30.74539063 69.26265625 31.64453125 68.8828125 C36.27526833 67.66448121 40.67050036 67.70991311 45.4375 67.75 C46.81131836 67.73839844 46.81131836 67.73839844 48.21289062 67.7265625 C60.26046569 67.76115712 70.16475627 71.7626299 79 80 C88.85623139 91.32002813 87.44070933 107.51082953 87.44140625 121.5234375 C87.45319702 123.59942548 87.46656535 125.67540504 87.48143005 127.75137329 C87.51741595 133.18393322 87.53776212 138.6164184 87.55297852 144.04907227 C87.57792704 152.76378452 87.61753143 161.47833189 87.67487907 170.19289017 C87.69115914 173.22737797 87.69498 176.26170813 87.69789124 179.29623413 C87.70766771 181.15761588 87.71793102 183.01899517 87.72875977 184.88037109 C87.72620682 185.71891632 87.72365387 186.55746155 87.72102356 187.42141724 C87.76966305 192.9908545 88.1909304 197.75425843 91.8125 202.25 C96.72146328 206.17717063 101.93057788 206.49752061 108 207 C108 208.65 108 210.3 108 212 C87.54 212 67.08 212 46 212 C46 210.35 46 208.7 46 207 C46.60328125 206.80664062 47.2065625 206.61328125 47.828125 206.4140625 C48.62734375 206.15367187 49.4265625 205.89328125 50.25 205.625 C51.03890625 205.36976563 51.8278125 205.11453125 52.640625 204.8515625 C53.41921875 204.57054687 54.1978125 204.28953125 55 204 C56.04414062 203.67128906 56.04414062 203.67128906 57.109375 203.3359375 C60.03622027 201.26779477 60.99547829 198.32651581 62 195 C62.40156628 191.94576547 62.40080461 188.93586121 62.37231445 185.85864258 C62.37596512 184.96981384 62.37961578 184.08098511 62.38337708 183.16522217 C62.39144893 180.24146101 62.37789488 177.31826023 62.36328125 174.39453125 C62.36276201 172.34820048 62.36328218 170.30186922 62.36479187 168.25553894 C62.36470228 163.96935564 62.35430427 159.68336094 62.33618164 155.3972168 C62.31356708 149.93138821 62.31293896 144.46583667 62.31969929 138.99997425 C62.32305939 134.77291957 62.31636976 130.54592679 62.30657005 126.3188839 C62.30274746 124.30526746 62.30155749 122.2916441 62.3031559 120.27802467 C63.25066349 100.97298565 63.25066349 100.97298565 56 84 C49.00621983 77.68853985 41.0780419 78.45768575 32.15234375 78.82958984 C24.52740907 79.43328817 18.52952669 83.28893191 13.10546875 88.4921875 C1.17454139 102.70305088 0.52446742 121.14542317 0.63671875 138.79296875 C0.63723921 140.43964131 0.63671435 142.0863145 0.63520813 143.73298645 C0.63529689 147.14736464 0.64553829 150.56150195 0.66381836 153.97583008 C0.68670196 158.34464715 0.68700364 162.7131199 0.68030071 167.08198071 C0.67695973 170.46634472 0.68359 173.85063047 0.69342995 177.23497963 C0.69726514 178.84688216 0.69843717 180.45879339 0.6968441 182.07069969 C0.69647256 184.31447393 0.70911155 186.55780604 0.7253418 188.80151367 C0.72994919 190.07451828 0.73455658 191.34752289 0.73930359 192.65910339 C1.09199259 197.17891054 1.96081006 199.93024565 5.125 203.1875 C8.74309598 205.46847355 11.81948891 206.14972656 16 207 C16 208.65 16 210.3 16 212 C-4.13 212 -24.26 212 -45 212 C-45 210.35 -45 208.7 -45 207 C-44.34773438 206.82984375 -43.69546875 206.6596875 -43.0234375 206.484375 C-37.76616378 205.02660589 -33.12757019 203.72488041 -29 200 C-24.98057544 192.31667931 -25.57685069 184.17071737 -25.61181641 175.72094727 C-25.6077469 174.06936293 -25.60240289 172.41778132 -25.59588623 170.76620483 C-25.58225086 166.29714018 -25.5874959 161.82828412 -25.59702349 157.35921597 C-25.60464098 152.67224664 -25.59756856 147.98529466 -25.59286499 143.29832458 C-25.58741298 135.42761035 -25.59458393 127.55698068 -25.60888672 119.6862793 C-25.62520649 110.60103497 -25.61992738 101.51599271 -25.6034075 92.43075329 C-25.58977005 84.61648573 -25.58788418 76.80227882 -25.59572351 68.98800319 C-25.60038834 64.3270216 -25.60105782 59.6661348 -25.59111404 55.00515938 C-25.58241393 50.62116596 -25.58852164 46.23743162 -25.60579681 41.85346603 C-25.60974569 40.24952435 -25.60865517 38.64556066 -25.60200882 37.04162788 C-25.28082527 23.52264276 -25.28082527 23.52264276 -30.9375 11.625 C-35.68535226 9.10573146 -40.76549418 8.10200123 -46 7 C-46 5.35 -46 3.7 -46 2 C-45.04222656 1.97494385 -44.08445312 1.9498877 -43.09765625 1.92407227 C-39.51176755 1.82922028 -35.92603789 1.72919627 -32.34033203 1.62768555 C-30.79447169 1.58462851 -29.24857269 1.54293574 -27.70263672 1.50268555 C-25.46830639 1.44426697 -23.23416556 1.38078733 -21 1.31640625 C-20.31945557 1.29969376 -19.63891113 1.28298126 -18.93774414 1.26576233 C-15.53171572 1.16284461 -12.18753811 0.92852124 -8.8125 0.48022461 C-5 0 -5 0 0 0 Z " fill="#E3E5E5" transform="translate(1288,378)"/>
<path d="M0 0 C10.94878139 9.14057355 15.51452083 20.27182289 18.265625 34.02734375 C18.265625 39.63734375 18.265625 45.24734375 18.265625 51.02734375 C-11.434375 51.02734375 -41.134375 51.02734375 -71.734375 51.02734375 C-71.26587809 86.11408232 -71.26587809 86.11408232 -54.90234375 116.1953125 C-44.52870807 124.96150193 -34.02440209 126.95553807 -20.79931641 126.21826172 C-8.81340712 125.11008235 -0.35521031 120.20575037 7.640625 111.52734375 C10.30676818 108.26131836 11.81637048 104.9725366 13.265625 101.02734375 C15.245625 101.35734375 17.225625 101.68734375 19.265625 102.02734375 C17.53349644 112.86774382 10.49756161 121.19460317 2.265625 128.02734375 C-12.42356042 138.64750274 -29.23615654 141.23989795 -46.93017578 138.71386719 C-56.10315231 136.98578537 -64.45551903 133.21563514 -72.734375 129.02734375 C-72.734375 128.36734375 -72.734375 127.70734375 -72.734375 127.02734375 C-73.5696875 126.65609375 -73.5696875 126.65609375 -74.421875 126.27734375 C-84.83454736 120.6488722 -91.83461417 108.077295 -95.36425781 97.06152344 C-102.68070511 71.63956336 -101.72319642 44.18799037 -89.1953125 20.4609375 C-80.28396393 5.61663226 -66.43555966 -4.59007588 -49.734375 -8.97265625 C-32.57419738 -12.54256408 -14.33719219 -10.34326008 0 0 Z " fill="#E3E5E5" transform="translate(623.734375,455.97265625)"/>
<path d="M0 0 C6.97313625 -0.30529682 13.94454247 -0.51480088 20.92285156 -0.65917969 C23.29394914 -0.71937954 25.66460388 -0.80116663 28.03417969 -0.90527344 C47.70046169 -1.74740642 47.70046169 -1.74740642 53.14599609 2.390625 C55.21859192 5.51171048 56.60936678 8.52813273 58 12 C59.06841119 13.64726585 60.1839259 15.26526591 61.3515625 16.84375 C61.88539551 17.60453857 62.41922852 18.36532715 62.96923828 19.14916992 C63.51563965 19.92494385 64.06204102 20.70071777 64.625 21.5 C65.84380033 23.23564174 67.06254881 24.97131989 68.28125 26.70703125 C69.20357422 28.01921631 69.20357422 28.01921631 70.14453125 29.35791016 C72.55610888 32.79186978 74.96045236 36.23086042 77.36474609 39.66992188 C82.22731342 46.62453966 87.10190794 53.57035468 92 60.5 C100.60880418 72.68224289 109.19472083 84.88082519 117.625 97.1875 C121.7961834 103.27618037 126.02897665 109.31856576 130.29370117 115.34204102 C134.95212236 121.92284186 139.57559466 128.52780571 144.19262695 135.13769531 C145.02346802 136.32637207 145.02346802 136.32637207 145.87109375 137.5390625 C146.66169189 138.67263184 146.66169189 138.67263184 147.46826172 139.82910156 C148.92405533 141.89236531 150.41486021 143.92624243 151.91015625 145.9609375 C154 149 154 149 154 151 C154.66 151 155.32 151 156 151 C155.98617866 133.92733386 155.94387794 116.85500589 155.86790943 99.78250885 C155.83329383 91.85497477 155.80790843 83.92761395 155.80444336 76 C155.80139867 69.08820998 155.78084068 62.17672882 155.73947543 55.26505804 C155.7181891 51.60714739 155.70552201 47.94967533 155.71384621 44.29170227 C155.72282292 40.2025014 155.69269043 36.11446617 155.65942383 32.02539062 C155.66804947 30.81985535 155.67667511 29.61432007 155.68556213 28.37225342 C155.5898644 21.35076335 154.75725477 16.36282429 150 11 C144.36690107 6.66684698 137.88415385 5.71215385 131 5 C131 3.35 131 1.7 131 0 C148.49 0 165.98 0 184 0 C184 1.65 184 3.3 184 5 C183.3709375 5.09796875 182.741875 5.1959375 182.09375 5.296875 C173.48384206 6.77181286 173.48384206 6.77181286 166 11 C162.67575193 15.97716801 161.41217661 19.64327394 161.48101807 25.67527771 C161.47351681 26.41629811 161.46601556 27.15731851 161.458287 27.92079407 C161.43809762 30.38685779 161.44609483 32.85199436 161.45410156 35.31811523 C161.44536175 37.09253341 161.43487455 38.86694371 161.42277527 40.64134216 C161.39494457 45.44662239 161.39150994 50.25164508 161.39249516 55.0569942 C161.38936355 60.08322573 161.36374014 65.1093417 161.34051514 70.13551331 C161.29997067 79.64800748 161.27961805 89.16043313 161.26654124 98.6730004 C161.25066596 109.5049407 161.21224807 120.33676448 161.17194796 131.16863716 C161.08957024 153.44571966 161.03546481 175.72279666 161 198 C157.64868164 198.16113281 157.64868164 198.16113281 154 198 C152.03997729 195.87583745 150.84169242 194.20981984 149.4375 191.75 C148.57998881 190.36132131 147.71912943 188.97470626 146.85546875 187.58984375 C146.39833496 186.84460449 145.94120117 186.09936523 145.47021484 185.33154297 C142.87896337 181.22220195 140.05576032 177.27704321 137.25 173.3125 C136.05045664 171.60569684 134.8512417 169.89866282 133.65234375 168.19140625 C133.05019043 167.33562988 132.44803711 166.47985352 131.82763672 165.59814453 C128.81751093 161.31898895 125.81419602 157.03507169 122.8125 152.75 C121.93730713 151.50089844 121.93730713 151.50089844 121.04443359 150.2265625 C117.46139712 145.10649912 113.90648023 139.96823065 110.375 134.8125 C105.16473427 127.20768456 99.8542073 119.67600487 94.52490234 112.15429688 C92.47804796 109.26261531 90.43740754 106.3665724 88.39648438 103.47070312 C79.94533487 91.48287231 71.4112535 79.55747674 62.81665039 67.67211914 C59.13329057 62.57629021 55.46938388 57.46716642 51.82177734 52.34570312 C49.43805789 49.00250518 47.04067958 45.66960796 44.6328125 42.34375 C43.76076172 41.13912109 43.76076172 41.13912109 42.87109375 39.91015625 C41.73668714 38.34431983 40.60132419 36.77917564 39.46484375 35.21484375 C38.94277344 34.49425781 38.42070313 33.77367187 37.8828125 33.03125 C37.42277832 32.39767578 36.96274414 31.76410156 36.48876953 31.11132812 C34.60656162 28.44203754 32.80833728 25.71972631 31 23 C30.92983945 42.14134199 30.87697733 61.2826578 30.84456348 80.42410183 C30.82911143 89.31231936 30.80805375 98.20045688 30.77368164 107.08862305 C30.74372833 114.83785799 30.72441292 122.58703496 30.71773452 130.33632618 C30.71383229 134.43743478 30.70469633 138.53837758 30.68280983 142.63943291 C30.66235082 146.50455572 30.65618508 150.36944542 30.66067696 154.23461723 C30.65985594 155.64828765 30.65394649 157.06196638 30.64238358 158.47558975 C30.38500059 171.330279 30.38500059 171.330279 36.125 182.375 C42.07002292 185.73523034 48.24962178 187.28187466 55 188 C55 189.65 55 191.3 55 193 C37.18 193 19.36 193 1 193 C1.33 191.35 1.66 189.7 2 188 C3.03640625 187.75765625 4.0728125 187.5153125 5.140625 187.265625 C6.51059929 186.92782312 7.88038115 186.58924016 9.25 186.25 C9.93191406 186.09273437 10.61382813 185.93546875 11.31640625 185.7734375 C15.63432824 184.68347661 18.29686181 183.57844008 21 180 C22.94820113 176.01572277 23.25477056 172.77116445 23.26742554 168.3581543 C23.27195665 167.70404162 23.27648776 167.04992895 23.28115618 166.37599468 C23.29378049 164.19199683 23.29218115 162.00824897 23.29052734 159.82421875 C23.2965137 158.25525595 23.30331949 156.68629608 23.31088257 155.11734009 C23.32853549 150.86122206 23.33323755 146.60518446 23.33451414 142.34903336 C23.3359363 139.68974217 23.34020705 137.03047141 23.34550858 134.3711853 C23.36400404 125.09347231 23.37217949 115.81581676 23.37060547 106.53808594 C23.36940307 97.88961016 23.39052591 89.24138355 23.4220928 80.59297085 C23.44823525 73.16608983 23.45897367 65.73929031 23.45769465 58.31236362 C23.45718457 53.87721047 23.46289367 49.44227895 23.48405075 45.00717163 C23.50339992 40.83740901 23.50358064 36.66808029 23.48901749 32.49830246 C23.48692438 30.96846255 23.49166017 29.4385957 23.5037384 27.90880203 C23.51916692 25.81930547 23.50990129 23.73130974 23.49447632 21.6418457 C23.49611062 19.88865776 23.49611062 19.88865776 23.49777794 18.10005188 C22.89358498 14.33727059 21.64390366 12.69559331 19 10 C13.06332482 6.86573049 6.64575276 5.50156625 0 5 C0 3.35 0 1.7 0 0 Z " fill="#E3E5E5" transform="translate(669,397)"/>
<path d="M0 0 C0.00146656 0.60830815 0.00293312 1.21661631 0.00444412 1.84335804 C0.04159087 16.68511819 0.10070925 31.5266707 0.18390274 46.3682375 C0.22361274 53.54570677 0.25604581 60.72306768 0.27099609 67.90063477 C0.28405457 74.16090517 0.31112519 80.42093633 0.35461307 86.68107194 C0.37713462 89.99195733 0.39082535 93.30248699 0.39188385 96.61345863 C0.39426056 100.32119876 0.42139966 104.0280156 0.45410156 107.7355957 C0.4490712 108.81813629 0.44404083 109.90067688 0.43885803 111.01602173 C0.54607035 118.91329755 1.54688561 127.13609358 6.99786758 133.23553944 C12.51109093 138.09429158 19.59738253 137.71412447 26.5625 137.49609375 C35.62736033 136.79325557 42.68012453 131.7365219 48.9375 125.4375 C60.39851745 111.57472521 61.31797432 95.08432471 61.30078125 77.94921875 C61.3046768 76.32021477 61.30901321 74.69121179 61.31376648 73.06221008 C61.32118057 69.66928796 61.32097037 66.27647003 61.31567383 62.88354492 C61.30985204 58.5448856 61.32689832 54.20664942 61.3500185 49.86806011 C61.36476568 46.51281767 61.36562678 43.15767733 61.36250877 39.80240822 C61.36302039 38.2024838 61.36822803 36.60255342 61.37832069 35.00266075 C61.39070246 32.76801384 61.38388642 30.53419488 61.37231445 28.29956055 C61.37294388 27.03146042 61.3735733 25.76336029 61.3742218 24.45683289 C60.84066499 19.52816027 59.2434345 16.2434345 55.75 12.75 C49.99977434 9.09076549 43.63986803 8.57214282 37 8 C37 6.02 37 4.04 37 2 C37.95253662 2.01047363 38.90507324 2.02094727 39.88647461 2.03173828 C43.45918948 2.06825181 47.03188825 2.09101318 50.60473633 2.10986328 C52.14382715 2.11985006 53.68289935 2.13344419 55.22192383 2.15087891 C66.1412836 2.36681246 66.1412836 2.36681246 76.84544373 0.46536255 C79.21108809 -0.04559291 81.33248405 -0.09728009 83.74975586 -0.06201172 C84.54900986 -0.05305878 85.34826385 -0.04410583 86.17173767 -0.03488159 C87.07672752 -0.0176152 87.07672752 -0.0176152 88 0 C88.00054477 0.62469114 88.00108953 1.24938229 88.00165081 1.89300346 C88.01664926 17.12667883 88.05921929 32.36000986 88.13209057 47.59350395 C88.16667363 54.96048129 88.19208727 62.32727281 88.19555664 69.69433594 C88.1986059 76.11906429 88.21922459 82.54346114 88.26052457 88.96806157 C88.28176997 92.36670915 88.2944994 95.76488649 88.28615379 99.16360092 C88.28124054 102.96748684 88.30737709 106.77001204 88.34057617 110.57373047 C88.33195053 111.68791855 88.32332489 112.80210663 88.31443787 113.95005798 C88.42063211 121.23475223 89.78570041 126.95122132 94 133 C98.31753692 136.97314437 103.36719759 137.60471562 109 138 C109 139.65 109 141.3 109 143 C103.59242296 143.28750692 98.1847095 143.5722431 92.77685547 143.85449219 C90.93990203 143.95074894 89.10298704 144.04774243 87.26611328 144.14550781 C84.61500836 144.28647812 81.96377323 144.4247358 79.3125 144.5625 C78.50071289 144.60624756 77.68892578 144.64999512 76.85253906 144.69506836 C76.07233398 144.73510986 75.29212891 144.77515137 74.48828125 144.81640625 C73.81321533 144.85193604 73.13814941 144.88746582 72.44262695 144.92407227 C68.96333981 145.03222402 65.48096766 145 62 145 C61.67 135.76 61.34 126.52 61 117 C59.68 119.64 58.36 122.28 57 125 C49.69861034 134.68943815 41.49142234 141.18685835 30 145 C28.96359375 145.35707031 27.9271875 145.71414063 26.859375 146.08203125 C15.81105122 148.70992203 1.69379834 148.86130909 -8.5234375 143.60546875 C-16.30656004 138.55994294 -22.06945747 133.00095205 -25 124 C-25.89043771 118.15996725 -26.14557017 112.49046157 -26.1418457 106.58984375 C-26.14705734 105.23211349 -26.14705734 105.23211349 -26.15237427 103.84695435 C-26.15968717 101.89473067 -26.16505614 99.94249893 -26.16866493 97.99026489 C-26.17587868 94.89570508 -26.19157957 91.80129943 -26.21000671 88.70678711 C-26.26226061 79.912944 -26.31046633 71.11919055 -26.32592773 62.32519531 C-26.33602448 56.93415173 -26.36538293 51.54350499 -26.40724754 46.15261841 C-26.41952849 44.1050212 -26.42468413 42.05736792 -26.42244911 40.00973511 C-26.42008859 37.14277906 -26.44231666 34.27695845 -26.4699707 31.41015625 C-26.46336929 30.5725174 -26.45676788 29.73487854 -26.44996643 28.87185669 C-26.54025585 23.14810542 -27.80563827 18.79255159 -31 14 C-35.54211136 9.68499421 -40.4875217 9.18429911 -46.48828125 8.39453125 C-49 8 -49 8 -50 7 C-50.04063832 5.33382885 -50.042721 3.66611905 -50 2 C-48.88028809 1.97494385 -47.76057617 1.9498877 -46.60693359 1.92407227 C-42.4359272 1.82959986 -38.26507193 1.7294778 -34.09423828 1.62768555 C-32.29219102 1.58448689 -30.4901068 1.54280176 -28.68798828 1.50268555 C-26.09135825 1.44461624 -23.4949117 1.3810292 -20.8984375 1.31640625 C-20.0982016 1.29969376 -19.2979657 1.28298126 -18.47348022 1.26576233 C-12.24504943 1.10237729 -6.23241984 -0.06624358 0 0 Z " fill="#E3E5E4" transform="translate(405,447)"/>
<path d="M0 0 C0 19.14 0 38.28 0 58 C-1.65 57.67 -3.3 57.34 -5 57 C-5.08636719 55.9584375 -5.17273438 54.916875 -5.26171875 53.84375 C-6.61437398 39.40920452 -8.90704095 22.54395028 -20.625 12.6875 C-29.387743 6.80043278 -39.94340716 6.414444 -50.1875 5.8125 C-52.0447168 5.6897168 -52.0447168 5.6897168 -53.93945312 5.56445312 C-56.95914032 5.36624972 -59.97908374 5.17830352 -63 5 C-62.96279261 26.47110858 -62.90287189 47.94204762 -62.81609726 69.41301537 C-62.77633042 79.38293087 -62.74392595 89.35276771 -62.72900391 99.32275391 C-62.71597519 108.01514105 -62.68897938 116.70735494 -62.64538693 125.39964449 C-62.62279957 129.99987278 -62.60708768 134.59988758 -62.60811615 139.20017624 C-62.60886437 143.53574317 -62.59084872 147.87083868 -62.55883217 152.20628357 C-62.55035769 153.79204278 -62.5485665 155.37785501 -62.55419731 156.96362686 C-62.58035476 165.46698767 -62.53999564 173.50466261 -58 181 C-53.801799 184.82952046 -49.56415255 185.85401557 -44.125 186.75 C-43.43664062 186.87503906 -42.74828125 187.00007812 -42.0390625 187.12890625 C-40.36158618 187.43178392 -38.68105912 187.71768473 -37 188 C-37 189.65 -37 191.3 -37 193 C-63.73 193 -90.46 193 -118 193 C-118 188 -118 188 -117 187 C-115.33544688 186.86624127 -113.66794915 186.76858086 -112 186.6875 C-105.78408372 186.13048932 -99.88564479 185.20805861 -95.52660084 180.36197758 C-90.88775615 172.91325605 -91.29033372 165.12054796 -91.34057617 156.64819336 C-91.33211307 155.00155427 -91.32146444 153.35492518 -91.30880737 151.70831299 C-91.28076044 147.26049994 -91.28311493 142.81317081 -91.29110122 138.36529613 C-91.29423449 133.70875545 -91.26916794 129.05236669 -91.24714661 124.39588928 C-91.20975056 115.58821033 -91.19756124 106.78068577 -91.1945222 97.97293526 C-91.18982656 87.9414043 -91.15688699 77.91002754 -91.12162435 67.87856472 C-91.04974935 47.252394 -91.01318258 26.62628628 -91 6 C-94.52618463 6.14914232 -98.05216378 6.30270423 -101.578125 6.45703125 C-103.06723389 6.51993347 -103.06723389 6.51993347 -104.58642578 6.58410645 C-116.80183175 7.12391588 -127.60626367 7.72001346 -136.77734375 16.75 C-138.41442227 18.74948521 -139.71549336 20.75788212 -141 23 C-141.45117188 23.78246094 -141.90234375 24.56492187 -142.3671875 25.37109375 C-147.34066674 35.5093399 -147.86845594 46.91284103 -149 58 C-150.65 58 -152.3 58 -154 58 C-154.01981934 57.23260498 -154.03963867 56.46520996 -154.06005859 55.67456055 C-154.15851012 52.01200058 -154.26680843 48.34978476 -154.375 44.6875 C-154.42140625 42.88055664 -154.42140625 42.88055664 -154.46875 41.03710938 C-154.74540808 31.9765573 -155.33968497 22.96290528 -156.02587891 13.92504883 C-156.1194014 12.67877968 -156.21292389 11.43251053 -156.3092804 10.14847565 C-156.53830193 7.09888989 -156.76857148 4.04940388 -157 1 C-137.7109804 0.86928824 -118.42195873 0.73888543 -99.13293457 0.60884857 C-90.17634992 0.54846063 -81.21976596 0.48797229 -72.26318359 0.42724609 C-64.45499651 0.37430635 -56.64680817 0.3215565 -48.83861828 0.26903296 C-44.70575555 0.24122574 -40.57289351 0.2133246 -36.44003296 0.18519592 C-32.54624903 0.15869743 -28.65246347 0.13245377 -24.75867653 0.10640144 C-23.33331044 0.09682052 -21.90794497 0.08714829 -20.48258018 0.07737541 C-18.52793927 0.06398762 -16.57329585 0.05096821 -14.61865234 0.03796387 C-13.52724945 0.03058952 -12.43584656 0.02321518 -11.31137085 0.01561737 C-7.54095224 -0.002165 -3.77046054 0 0 0 Z " fill="#E3E5E4" transform="translate(223,397)"/>
<path d="M0 0 C0.67417969 0.50789063 1.34835937 1.01578125 2.04296875 1.5390625 C2.70683594 2.02632813 3.37070312 2.51359375 4.0546875 3.015625 C18.13844915 14.24943095 25.81296642 32.7638167 27.84228516 50.30322266 C30.07906384 75.22344069 25.86749421 98.66516352 10.04296875 118.5390625 C4.87208699 124.11234751 -1.35086657 127.87487148 -7.95703125 131.5390625 C-8.61445312 131.93222656 -9.271875 132.32539062 -9.94921875 132.73046875 C-21.91980551 139.4608194 -40.68258868 139.68584049 -53.9140625 136.81640625 C-57.04165619 135.90001759 -59.96795171 134.83347871 -62.95703125 133.5390625 C-63.82070313 133.1884375 -64.684375 132.8378125 -65.57421875 132.4765625 C-81.2508777 125.4440426 -91.52520629 112.13194377 -97.95703125 96.5390625 C-104.36939516 77.34294436 -106.34659326 54.04404126 -99.95703125 34.5390625 C-99.46396484 32.92644531 -99.46396484 32.92644531 -98.9609375 31.28125 C-93.39875404 14.99887211 -82.12315 1.41478612 -66.83447266 -6.56787109 C-44.69399827 -17.09971184 -19.85844623 -14.10709295 0 0 Z M-60.9140625 4.76953125 C-68.84913263 15.64351624 -71.91798628 26.49193019 -73.95703125 39.5390625 C-74.12904053 40.44011719 -74.3010498 41.34117187 -74.47827148 42.26953125 C-75.03021176 46.03882458 -75.15514548 49.74970702 -75.1953125 53.55078125 C-75.20519699 54.31254669 -75.21508148 55.07431213 -75.2252655 55.85916138 C-75.47434716 80.02638181 -75.46577494 104.6937735 -57.95703125 123.5390625 C-55.5187919 125.39493711 -55.5187919 125.39493711 -52.95703125 126.7890625 C-52.13203125 127.26859375 -51.30703125 127.748125 -50.45703125 128.2421875 C-43.23650093 131.9878376 -36.17592038 133.14890635 -28.234375 130.69921875 C-17.45625767 125.75161311 -11.13124018 117.37656972 -6.70019531 106.57080078 C-2.59476593 95.34695607 -1.25458435 83.41639038 -0.95703125 71.5390625 C-0.8796875 69.62480469 -0.8796875 69.62480469 -0.80078125 67.671875 C-0.17298117 46.13310043 -1.75286633 19.60792495 -17.1640625 3.1875 C-24.62083739 -3.79925671 -30.61384077 -5.79830793 -40.7734375 -5.76171875 C-48.74231611 -5.00883083 -55.65323025 -1.22634743 -60.9140625 4.76953125 Z " fill="#E3E5E5" transform="translate(977.95703125,457.4609375)"/>
<path d="M0 0 C0 15.18 0 30.36 0 46 C11.88 46 23.76 46 36 46 C36 47.98 36 49.96 36 52 C24.12 52 12.24 52 0 52 C0.06302326 66.15237702 0.13852343 80.30453878 0.23571491 94.45672321 C0.28035649 101.02883479 0.31962649 107.60088527 0.34643555 114.1730957 C0.37253021 120.52096782 0.41297663 126.86860401 0.46318626 133.21632957 C0.47981326 135.63266238 0.49135338 138.04903596 0.49761391 140.46541786 C0.50730018 143.86171566 0.5354144 147.2574155 0.56762695 150.65356445 C0.56619186 151.64259766 0.56475677 152.63163086 0.5632782 153.65063477 C0.66080942 160.9679443 0.98990619 169.46888601 5.92018604 175.25255299 C10.30731835 178.93859482 15.56006713 178.43553623 21 178 C27.23501891 176.12949433 31.33834711 171.18796817 35 166 C36.94617875 162.08888415 38.5503385 158.11899012 40 154 C41.65 154.33 43.3 154.66 45 155 C43.44498154 166.2400791 39.15713518 177.00082662 30.25 184.25 C21.14006403 190.54781156 10.81899646 191.39863413 0 190 C-9.63538979 187.35786918 -16.28021858 182.83170793 -21.64453125 174.43359375 C-26.6725726 165.40630338 -27.1433359 155.85206938 -27.20532227 145.75024414 C-27.21522186 144.74460419 -27.22512146 143.73896423 -27.23532104 142.70285034 C-27.26677043 139.39697581 -27.2916277 136.09108694 -27.31640625 132.78515625 C-27.33699009 130.48587177 -27.35798693 128.18659095 -27.37937927 125.88731384 C-27.43445224 119.8490598 -27.48392646 113.81077245 -27.53222656 107.77246094 C-27.58254972 101.60543875 -27.63817924 95.43846467 -27.69335938 89.27148438 C-27.80076015 77.18102923 -27.90175435 65.09053301 -28 53 C-36.25 52.67 -44.5 52.34 -53 52 C-53.33 50.35 -53.66 48.7 -54 47 C-53.21238281 46.9484375 -52.42476562 46.896875 -51.61328125 46.84375 C-41.35063759 45.77497764 -32.90114605 42.27023411 -25.76953125 34.6015625 C-19.08204521 25.56133617 -16.55593612 15.89101706 -14.61328125 5.02734375 C-14 2 -14 2 -13 1 C-8.53288688 0.32993303 -4.54017227 0 0 0 Z " fill="#E3E5E5" transform="translate(1192,404)"/>
<path d="M0 0 C1.83219646 1.83219646 1.23901328 4.75713741 1.31640625 7.22265625 C1.35830078 8.48271484 1.40019531 9.74277344 1.44335938 11.04101562 C1.48317596 12.38150736 1.52288814 13.7220022 1.5625 15.0625 C1.60568042 16.40691523 1.64929456 17.7513166 1.69335938 19.09570312 C1.79985358 22.3970234 1.9018646 25.69842236 2 29 C2.38236816 28.3390332 2.76473633 27.67806641 3.15869141 26.99707031 C9.50553994 16.19299866 18.0884021 4.58871158 30.53515625 0.47265625 C38.4231555 -1.03993949 47.38149151 -1.5314 54.42578125 2.79296875 C59.06045981 6.34660566 63.13645784 10.40937352 65 16 C65.75264847 21.89733419 65.83903394 26.62644828 62.25 31.5625 C59.32131089 35.11982188 56.79615793 36.76234679 52.1953125 37.37109375 C42.88357547 37.57249264 42.88357547 37.57249264 39.375 34.75 C35.52550062 30.29268493 34.55688146 27.1274861 34.671875 21.3203125 C35.32420945 16.70737604 37.72781265 13.27218735 41 10 C32.0876657 9.1466914 25.88583829 11.17437978 18.83984375 16.69140625 C6.26928774 28.29313329 1.28754498 44.7126112 0.55200195 61.38061523 C0.35742228 69.05176444 0.39733481 76.7172746 0.48181152 84.38970947 C0.50619914 87.30304802 0.5005195 90.21601577 0.49454498 93.129426 C0.49145794 95.9701815 0.5036514 98.81071098 0.52067566 101.65141106 C0.53094781 103.63310855 0.53155062 105.61484879 0.53186035 107.59657288 C0.64179261 116.02013216 1.37384857 123.59181724 5.75 130.9375 C11.80611442 136.48893822 18.16808358 136.43901001 26.0859375 136.7890625 C29 137 29 137 30 138 C30 139.65 30 141.3 30 143 C4.92 143 -20.16 143 -46 143 C-46 141.35 -46 139.7 -46 138 C-45.19175781 137.75765625 -44.38351562 137.5153125 -43.55078125 137.265625 C-34.07461015 134.42381261 -34.07461015 134.42381261 -27.40415955 127.4803009 C-25.56804323 122.929367 -25.5718691 119.05066123 -25.59594727 114.19018555 C-25.58565239 112.73289032 -25.58565239 112.73289032 -25.57514954 111.24615479 C-25.55688805 108.04285963 -25.56071898 104.84005467 -25.56640625 101.63671875 C-25.56184342 99.40240826 -25.55653755 97.16809917 -25.55052185 94.93379211 C-25.54159145 90.25243426 -25.54401232 85.57124699 -25.55395508 80.88989258 C-25.56543132 74.90457335 -25.54525302 68.91984527 -25.51603794 62.93460369 C-25.49764713 58.31991359 -25.49797441 53.70536431 -25.50367546 49.09064674 C-25.50382839 46.88474512 -25.49780744 44.67883379 -25.48538399 42.47296715 C-25.47042566 39.38093954 -25.481188 36.28999297 -25.49829102 33.19799805 C-25.48862305 32.29535721 -25.47895508 31.39271637 -25.46899414 30.46272278 C-25.54809635 23.59723395 -27.05971533 17.25903234 -31.765625 12.04296875 C-34.97968238 10.54270071 -38.28107032 9.91251336 -41.75 9.3125 C-42.44738281 9.18294922 -43.14476562 9.05339844 -43.86328125 8.91992188 C-45.57375889 8.60360067 -47.28666725 8.30047253 -49 8 C-49.33 6.35 -49.66 4.7 -50 3 C-49.05793701 2.98018066 -48.11587402 2.96036133 -47.14526367 2.93994141 C-43.59832275 2.86112534 -40.05174685 2.77441471 -36.50512695 2.68261719 C-34.97981 2.64469716 -33.4544148 2.60978517 -31.92895508 2.578125 C-23.88856132 2.40924243 -16.05171359 2.13807525 -8.15600586 0.43383789 C-5.39975872 -0.12078233 -2.7996078 -0.22102167 0 0 Z " fill="#E3E5E4" transform="translate(1066,447)"/>
<path d="M0 0 C0.33 8.91 0.66 17.82 1 27 C3.31 23.37 5.62 19.74 8 16 C14.25847858 7.81583571 21.93450762 1.78939135 32 -1 C40.98648783 -2.14325141 49.11677973 -0.18119053 56.375 5.3125 C61.14365291 10.19469226 63.22132392 13.71888208 63.5 20.5 C63.22565541 27.16657347 61.3199229 30.73807517 56.5 35.4375 C51.3311391 37.74502719 46.56778383 37.89237083 41 37 C37.01410986 35.06814137 34.66528722 32.05913759 33 28 C32.2878519 22.98184011 32.47087247 19.05825505 34.75 14.5 C36.80426769 12.21748034 38.14101815 11.02106495 41 10 C41 9.34 41 8.68 41 8 C29.0500741 9.38444263 20.23953199 11.86702478 12 21 C2.37789575 34.25534694 -0.79096621 48.20179415 -0.55859375 64.2421875 C-0.55432631 65.74618109 -0.55201314 67.25018134 -0.55152893 68.75418091 C-0.54542651 71.87549617 -0.52302842 74.99607594 -0.48706055 78.1171875 C-0.44155647 82.09444876 -0.42701738 86.0710539 -0.42332363 90.04855156 C-0.41887461 93.14230658 -0.40353879 96.23592769 -0.3844471 99.32962418 C-0.37564768 100.79586836 -0.36887828 102.26212634 -0.36428642 103.72838974 C-0.54422059 118.82227841 -0.54422059 118.82227841 6 132 C11.98794177 136.34125778 18.00588987 136.27066722 25.19921875 136.71875 C28 137 28 137 29 138 C29 139.65 29 141.3 29 143 C3.92 143 -21.16 143 -47 143 C-47 141.35 -47 139.7 -47 138 C-45.845 137.7525 -44.69 137.505 -43.5 137.25 C-37.64227851 135.75175507 -32.44391339 134.23573687 -29.0625 129 C-27.68506065 125.11075947 -26.87614664 121.81765497 -26.85955811 117.68704224 C-26.85384796 116.83197083 -26.84813782 115.97689941 -26.84225464 115.09591675 C-26.84057785 113.70096481 -26.84057785 113.70096481 -26.83886719 112.27783203 C-26.83390228 111.29202148 -26.82893738 110.30621094 -26.82382202 109.29052734 C-26.80921785 106.0296153 -26.80240173 102.76875188 -26.796875 99.5078125 C-26.79112268 97.24103799 -26.78536496 94.9742635 -26.77960205 92.70748901 C-26.76909742 87.95456719 -26.76325104 83.20166226 -26.75976562 78.44873047 C-26.75427813 72.36005095 -26.7302422 66.27159475 -26.70179367 60.18298531 C-26.68316724 55.50067492 -26.67796171 50.81841837 -26.67642975 46.13607407 C-26.67340337 43.89140475 -26.66537536 41.64673638 -26.65224457 39.40210342 C-26.63518224 36.2615484 -26.63706482 33.12153966 -26.64355469 29.98095703 C-26.6343399 29.05503754 -26.62512512 28.12911804 -26.6156311 27.17514038 C-26.65437051 21.18797616 -27.67915229 17.15718922 -31.30078125 12.23046875 C-33.76797126 10.44388288 -36.23192153 9.97988869 -39.1875 9.3125 C-40.27417969 9.06113281 -41.36085937 8.80976563 -42.48046875 8.55078125 C-43.31191406 8.36902344 -44.14335937 8.18726563 -45 8 C-45 6.02 -45 4.04 -45 2 C-43.92854736 1.970271 -43.92854736 1.970271 -42.83544922 1.93994141 C-25.15195103 1.53836359 -25.15195103 1.53836359 -7.63671875 -0.6953125 C-5 -1 -5 -1 0 0 Z " fill="#E3E5E4" transform="translate(284,447)"/>
<path d="M0 0 C7.65924395 5.71044224 11.04237946 13.22722057 12.62890625 22.4375 C13.82806211 30.71798681 14 38.54473324 14 47 C-6.13 47 -26.26 47 -47 47 C-47 31.83422612 -44.35634043 16.80576053 -34 5 C-24.25362063 -3.28531336 -11.66308631 -6.01277941 0 0 Z " fill="#FEFEFE" transform="translate(601,455)"/>
</svg>
